<svg xmlns="http://www.w3.org/2000/svg" width="70" height="63" viewBox="0 0 70 63">
  <g id="Group_20812" data-name="Group 20812" transform="translate(-0.202 -0.219)">
    <g id="Group_20808" data-name="Group 20808" transform="translate(12.059 0.37)">
      <rect id="Rectangle_4171" data-name="Rectangle 4171" width="35" height="32" rx="5" transform="translate(0.143 -0.151)" fill="#dd8d00"/>
      <path id="Rectangle_4171_-_Outline" data-name="Rectangle 4171 - Outline" d="M5.26,2.1A3.159,3.159,0,0,0,2.1,5.26V26.3A3.159,3.159,0,0,0,5.26,29.455h24.2A3.159,3.159,0,0,0,32.611,26.3V5.26A3.159,3.159,0,0,0,29.455,2.1H5.26m0-2.1h24.2a5.26,5.26,0,0,1,5.26,5.26V26.3a5.26,5.26,0,0,1-5.26,5.26H5.26A5.26,5.26,0,0,1,0,26.3V5.26A5.26,5.26,0,0,1,5.26,0Z" transform="translate(0 0.022)" fill="#333"/>
      <path id="Rectangle_4172" data-name="Rectangle 4172" d="M5,0H24a3,3,0,0,1,3,3V25a3,3,0,0,1-3,3H5a5,5,0,0,1-5-5V5A5,5,0,0,1,5,0Z" transform="translate(5.143 1.849)" fill="#f7b71e"/>
      <text id="N" transform="translate(7.143 25.849)" fill="#fff" font-size="26" font-family="ArialRoundedMTBold, Arial Rounded MT"><tspan x="0" y="0">N</tspan></text>
      <path id="N_-_Outline" data-name="N - Outline" d="M4.262-18.7a2.635,2.635,0,0,1,1.1.214,2.652,2.652,0,0,1,.8.56,5.179,5.179,0,0,1,.631.815c.191.3.392.613.6.936l6.365,9.631v-9.448a2.965,2.965,0,0,1,.6-1.98,2.093,2.093,0,0,1,1.664-.729,2.142,2.142,0,0,1,1.694.726,2.942,2.942,0,0,1,.6,1.983V-1.185c0,2.614-1.617,3-2.581,3a3.256,3.256,0,0,1-1.1-.179,2.88,2.88,0,0,1-.943-.571,5.113,5.113,0,0,1-.745-.837c-.207-.288-.416-.587-.623-.889l-.007-.01L6.124-10.152V-.89a2.863,2.863,0,0,1-.637,1.984,2.169,2.169,0,0,1-1.674.725A2.149,2.149,0,0,1,2.12,1.08,2.91,2.91,0,0,1,1.5-.89V-15.414a4.566,4.566,0,0,1,.241-1.642l.005-.013A2.6,2.6,0,0,1,2.756-18.25,2.73,2.73,0,0,1,4.262-18.7ZM14.8-3.044,6.5-15.608c-.2-.323-.4-.637-.595-.934a4.145,4.145,0,0,0-.5-.649,1.582,1.582,0,0,0-.484-.339,1.6,1.6,0,0,0-.661-.119,1.672,1.672,0,0,0-.934.281,1.545,1.545,0,0,0-.608.7,3.666,3.666,0,0,0-.167,1.253V-.89A1.918,1.918,0,0,0,2.912.388a1.111,1.111,0,0,0,.9.379,1.128,1.128,0,0,0,.895-.38A1.874,1.874,0,0,0,5.072-.89v-12.8L13.188-1.247c.2.294.405.585.607.866a4.062,4.062,0,0,0,.59.665,1.836,1.836,0,0,0,.6.366,2.212,2.212,0,0,0,.747.117c.756,0,1.529-.232,1.529-1.952V-15.992a1.961,1.961,0,0,0-.346-1.292,1.106,1.106,0,0,0-.9-.365,1.058,1.058,0,0,0-.866.362,1.985,1.985,0,0,0-.342,1.295Z" transform="translate(7.442 25.349)"/>
    </g>
    <g id="Group_20809" data-name="Group 20809" transform="translate(0.003 30.899)">
      <rect id="Rectangle_4171-2" data-name="Rectangle 4171" width="35" height="32" rx="5" transform="translate(0.199 0.32)" fill="#d42f2f"/>
      <path id="Rectangle_4171_-_Outline-2" data-name="Rectangle 4171 - Outline" d="M5.26,2.1A3.159,3.159,0,0,0,2.1,5.26V26.3A3.159,3.159,0,0,0,5.26,29.455h24.2A3.159,3.159,0,0,0,32.611,26.3V5.26A3.159,3.159,0,0,0,29.455,2.1H5.26m0-2.1h24.2a5.26,5.26,0,0,1,5.26,5.26V26.3a5.26,5.26,0,0,1-5.26,5.26H5.26A5.26,5.26,0,0,1,0,26.3V5.26A5.26,5.26,0,0,1,5.26,0Z" transform="translate(0.484 0)" fill="#333"/>
      <path id="Rectangle_4172-2" data-name="Rectangle 4172" d="M5,0H24a3,3,0,0,1,3,3V25a3,3,0,0,1-3,3H5a5,5,0,0,1-5-5V5A5,5,0,0,1,5,0Z" transform="translate(5.199 2.32)" fill="#eb6060"/>
      <text id="G" transform="translate(9.199 26.32)" fill="#fff" font-size="26" font-family="ArialRoundedMTBold, Arial Rounded MT"><tspan x="0" y="0">G</tspan></text>
      <path id="G_-_Outline" data-name="G - Outline" d="M10.852,1.819a11.786,11.786,0,0,1-4.139-.7A8.879,8.879,0,0,1,3.48-.944,9.122,9.122,0,0,1,1.428-4.212,12.1,12.1,0,0,1,.721-8.441a12.4,12.4,0,0,1,.686-4.2,8.809,8.809,0,0,1,2.049-3.289A9.015,9.015,0,0,1,6.74-17.994a12.443,12.443,0,0,1,4.317-.707,10.827,10.827,0,0,1,3.537.536,7.955,7.955,0,0,1,2.543,1.373,6.243,6.243,0,0,1,1.5,1.784,3.834,3.834,0,0,1,.525,1.777,2.146,2.146,0,0,1-.7,1.607,2.306,2.306,0,0,1-1.64.652,2.25,2.25,0,0,1-1.028-.25,2.323,2.323,0,0,1-.82-.7l-.02-.03a14.77,14.77,0,0,0-1.149-1.609,3.353,3.353,0,0,0-1.14-.817,4.538,4.538,0,0,0-1.891-.336,5.338,5.338,0,0,0-2.152.412,4.382,4.382,0,0,0-1.589,1.182,5.471,5.471,0,0,0-1.028,1.94,8.868,8.868,0,0,0-.368,2.63,7.176,7.176,0,0,0,1.4,4.757,4.736,4.736,0,0,0,3.844,1.6,8.166,8.166,0,0,0,2.334-.325,11.868,11.868,0,0,0,1.981-.8V-5.526H12.766a3.691,3.691,0,0,1-1.878-.394,1.667,1.667,0,0,1-.805-1.545,1.876,1.876,0,0,1,.63-1.431A2.3,2.3,0,0,1,12.3-9.442h4.328a6.063,6.063,0,0,1,1.479.158,2.04,2.04,0,0,1,1.194.838,3.031,3.031,0,0,1,.435,1.765v3.608A4.254,4.254,0,0,1,19.57-1.76a2.348,2.348,0,0,1-.665,1,5.441,5.441,0,0,1-1.073.742,15.846,15.846,0,0,1-3.4,1.394A13.839,13.839,0,0,1,10.852,1.819Zm.205-19.468a11.4,11.4,0,0,0-3.953.642A7.971,7.971,0,0,0,4.2-15.183a7.766,7.766,0,0,0-1.8,2.9,11.349,11.349,0,0,0-.624,3.842,11.053,11.053,0,0,0,.641,3.862,8.078,8.078,0,0,0,1.814,2.9A7.835,7.835,0,0,0,7.081.133a10.741,10.741,0,0,0,3.771.634A12.79,12.79,0,0,0,14.157.361a14.8,14.8,0,0,0,3.173-1.3,4.4,4.4,0,0,0,.865-.593,1.294,1.294,0,0,0,.375-.553,3.314,3.314,0,0,0,.115-.985V-6.682a2.042,2.042,0,0,0-.246-1.163,1,1,0,0,0-.591-.421,5.034,5.034,0,0,0-1.218-.125H12.3a1.271,1.271,0,0,0-.887.276.818.818,0,0,0-.282.649c0,.416.153.56.286.638a2.694,2.694,0,0,0,1.345.248h3.48v3.9l-.277.149A13.17,13.17,0,0,1,13.513-1.5a9.216,9.216,0,0,1-2.635.369A5.8,5.8,0,0,1,6.233-3.1,8.173,8.173,0,0,1,4.586-8.544,9.914,9.914,0,0,1,5-11.486,6.513,6.513,0,0,1,6.233-13.8,5.426,5.426,0,0,1,8.2-15.26a6.379,6.379,0,0,1,2.574-.5,5.557,5.557,0,0,1,2.334.434A4.389,4.389,0,0,1,14.6-14.242a15.438,15.438,0,0,1,1.229,1.713,1.261,1.261,0,0,0,.441.37,1.191,1.191,0,0,0,.551.135,1.269,1.269,0,0,0,.915-.362,1.1,1.1,0,0,0,.37-.845,2.827,2.827,0,0,0-.4-1.279,5.2,5.2,0,0,0-1.25-1.478A6.921,6.921,0,0,0,14.25-17.17,9.786,9.786,0,0,0,11.058-17.649Z" transform="translate(7.885 25.327)"/>
    </g>
    <g id="Group_20810" data-name="Group 20810" transform="translate(35.202 30.899)">
      <rect id="Rectangle_4171-3" data-name="Rectangle 4171" width="35" height="32" rx="5" transform="translate(0 0.32)" fill="#046b74"/>
      <path id="Rectangle_4171_-_Outline-3" data-name="Rectangle 4171 - Outline" d="M5.26,2.1A3.159,3.159,0,0,0,2.1,5.26V26.3A3.159,3.159,0,0,0,5.26,29.455h24.2A3.159,3.159,0,0,0,32.611,26.3V5.26A3.159,3.159,0,0,0,29.455,2.1H5.26m0-2.1h24.2a5.26,5.26,0,0,1,5.26,5.26V26.3a5.26,5.26,0,0,1-5.26,5.26H5.26A5.26,5.26,0,0,1,0,26.3V5.26A5.26,5.26,0,0,1,5.26,0Z" transform="translate(0 0)" fill="#333"/>
      <path id="Rectangle_4172-3" data-name="Rectangle 4172" d="M5,0H24a3,3,0,0,1,3,3V25a3,3,0,0,1-3,3H5a5,5,0,0,1-5-5V5A5,5,0,0,1,5,0Z" transform="translate(5 2.32)" fill="#0992a1"/>
      <text id="O" transform="translate(8 26.32)" fill="#fff" font-size="26" font-family="ArialRoundedMTBold, Arial Rounded MT"><tspan x="0" y="0">O</tspan></text>
      <path id="O_-_Outline" data-name="O - Outline" d="M10.305-18.7a10.614,10.614,0,0,1,5.286,1.256,8.251,8.251,0,0,1,3.391,3.6,12.081,12.081,0,0,1,1.133,5.375A13.161,13.161,0,0,1,19.5-4.333a9.146,9.146,0,0,1-1.881,3.282,8.3,8.3,0,0,1-3.1,2.139,11.051,11.051,0,0,1-4.139.732,10.959,10.959,0,0,1-4.154-.752A8.4,8.4,0,0,1,3.121-1.077,9.146,9.146,0,0,1,1.246-4.386,13.18,13.18,0,0,1,.623-8.492a12.751,12.751,0,0,1,.651-4.152,9.1,9.1,0,0,1,1.916-3.269,8.361,8.361,0,0,1,3.067-2.076A10.925,10.925,0,0,1,10.305-18.7ZM10.382.767A10.011,10.011,0,0,0,14.128.112a7.256,7.256,0,0,0,2.708-1.868A8.1,8.1,0,0,0,18.5-4.664a12.115,12.115,0,0,0,.564-3.8,11.046,11.046,0,0,0-1.025-4.911,7.217,7.217,0,0,0-2.965-3.152,9.583,9.583,0,0,0-4.768-1.12,9.884,9.884,0,0,0-3.658.637A7.317,7.317,0,0,0,3.961-15.2,8.058,8.058,0,0,0,2.269-12.3a11.7,11.7,0,0,0-.594,3.81,12.132,12.132,0,0,0,.571,3.779A8.1,8.1,0,0,0,3.9-1.781,7.36,7.36,0,0,0,6.626.093,9.917,9.917,0,0,0,10.382.767ZM10.305-15.67a5.783,5.783,0,0,1,3.124.857,5.523,5.523,0,0,1,2.109,2.526,9.391,9.391,0,0,1,.712,3.795A9.292,9.292,0,0,1,15.474-4.5a5.6,5.6,0,0,1-2.157,2.486,5.7,5.7,0,0,1-2.96.806A5.672,5.672,0,0,1,8.044-1.68,5.345,5.345,0,0,1,6.164-3.1,6.5,6.5,0,0,1,4.917-5.433a10.293,10.293,0,0,1-.428-3.059,10.055,10.055,0,0,1,.429-3.029A6.529,6.529,0,0,1,6.123-13.8a5.185,5.185,0,0,1,1.857-1.392A5.7,5.7,0,0,1,10.305-15.67Zm.051,13.407a4.657,4.657,0,0,0,2.421-.658,4.569,4.569,0,0,0,1.746-2.034A8.265,8.265,0,0,0,15.2-8.492a8.356,8.356,0,0,0-.623-3.371,4.493,4.493,0,0,0-1.705-2.059,4.748,4.748,0,0,0-2.565-.7,4.651,4.651,0,0,0-1.9.385,4.141,4.141,0,0,0-1.482,1.112,5.492,5.492,0,0,0-1,1.917,9.01,9.01,0,0,0-.38,2.711,9.248,9.248,0,0,0,.381,2.746A5.459,5.459,0,0,0,6.96-3.783,4.3,4.3,0,0,0,8.47-2.642,4.628,4.628,0,0,0,10.356-2.264Z" transform="translate(7.396 25.327)"/>
    </g>
  </g>
</svg>
