<svg xmlns="http://www.w3.org/2000/svg" width="14.406" height="14.406" viewBox="0 0 14.406 14.406">
  <g id="Icon_ionic-ios-add-circle-outline" data-name="Icon ionic-ios-add-circle-outline" transform="translate(0 0)">
    <path id="Path_23368" data-name="Path 23368" d="M19.139,14.475H15.876V11.212a.7.7,0,0,0-1.4,0v3.263H11.212a.671.671,0,0,0-.7.7.678.678,0,0,0,.7.7h3.263v3.263a.679.679,0,0,0,.7.7.7.7,0,0,0,.7-.7V15.876h3.263a.7.7,0,1,0,0-1.4Z" transform="translate(-7.973 -7.973)" fill="#fff"/>
    <path id="Path_23369" data-name="Path 23369" d="M10.578,4.345A6.231,6.231,0,1,1,6.17,6.17a6.192,6.192,0,0,1,4.408-1.825m0-.97a7.2,7.2,0,1,0,7.2,7.2,7.2,7.2,0,0,0-7.2-7.2Z" transform="translate(-3.375 -3.375)" fill="#fff"/>
  </g>
</svg>
