<svg xmlns="http://www.w3.org/2000/svg" xmlns:xlink="http://www.w3.org/1999/xlink" width="56" height="55.71" viewBox="0 0 56 55.71">
  <defs>
    <filter id="Path_23408" x="0" y="0" width="56" height="55.71" filterUnits="userSpaceOnUse">
      <feOffset dy="3" input="SourceAlpha"/>
      <feGaussianBlur stdDeviation="3" result="blur"/>
      <feFlood flood-opacity="0.161"/>
      <feComposite operator="in" in2="blur"/>
      <feComposite in="SourceGraphic"/>
    </filter>
  </defs>
  <g id="facebook" transform="translate(9 5.85)">
    <g transform="matrix(1, 0, 0, 1, -9, -5.85)" filter="url(#Path_23408)">
      <path id="Path_23408-2" data-name="Path 23408" d="M38,19.12A19,19,0,1,0,16.031,37.852V24.6H11.21V19.112h4.821V14.938c0-4.75,2.834-7.382,7.18-7.382a29.23,29.23,0,0,1,4.251.371V12.6h-2.4a2.744,2.744,0,0,0-3.1,2.964V19.12h5.265L26.394,24.6H21.969V37.86A19,19,0,0,0,38,19.12Z" transform="translate(9 5.85)" fill="#1773ea"/>
    </g>
    <path id="Path_23409" data-name="Path 23409" d="M0,0H38V38H0Z" fill="none"/>
  </g>
</svg>
