<svg xmlns="http://www.w3.org/2000/svg" width="21" height="21" viewBox="0 0 21 21">
  <path id="Icon_metro-earth" data-name="Icon metro-earth" d="M13.071,1.928a10.5,10.5,0,1,0,10.5,10.5,10.5,10.5,0,0,0-10.5-10.5Zm0,19.687a9.157,9.157,0,0,1-3.635-.748l4.781-5.379a.656.656,0,0,0,.166-.436V13.084a.656.656,0,0,0-.656-.656c-2.317,0-4.762-2.409-4.786-2.433A.656.656,0,0,0,8.477,9.8H5.852a.656.656,0,0,0-.656.656V14.4a.656.656,0,0,0,.363.587l2.262,1.131v3.853A9.193,9.193,0,0,1,4.768,8.49h2.4A.656.656,0,0,0,7.628,8.3l2.625-2.625a.656.656,0,0,0,.192-.464V3.622a9.213,9.213,0,0,1,6.65.546c-.085.072-.168.147-.247.226a3.938,3.938,0,0,0,2.782,6.722q.1,0,.2,0a15.411,15.411,0,0,1-.172,7.636.655.655,0,0,0-.017.107,9.159,9.159,0,0,1-6.565,2.761Z" transform="translate(-2.571 -1.928)" fill="#365394"/>
</svg>
