<svg xmlns="http://www.w3.org/2000/svg" width="13.125" height="21" viewBox="0 0 13.125 21">
  <path id="Icon_awesome-mobile-alt" data-name="Icon awesome-mobile-alt" d="M11.156,0H1.969A1.969,1.969,0,0,0,0,1.969V19.031A1.969,1.969,0,0,0,1.969,21h9.188a1.969,1.969,0,0,0,1.969-1.969V1.969A1.969,1.969,0,0,0,11.156,0ZM6.562,19.688a1.313,1.313,0,1,1,1.312-1.312A1.311,1.311,0,0,1,6.562,19.688Zm4.594-4.43a.494.494,0,0,1-.492.492h-8.2a.494.494,0,0,1-.492-.492V2.461a.494.494,0,0,1,.492-.492h8.2a.494.494,0,0,1,.492.492Z" fill="#365394"/>
</svg>
