<svg xmlns="http://www.w3.org/2000/svg" width="15" height="18" viewBox="0 0 15 18">
  <path id="df12b5039313fc3798dfa93cfb504acd" d="M16.188,8.3V6.5A4.552,4.552,0,0,0,11.5,2,4.552,4.552,0,0,0,6.813,6.5V8.3A2.709,2.709,0,0,0,4,11v6.3A2.709,2.709,0,0,0,6.813,20h9.375A2.709,2.709,0,0,0,19,17.3V11A2.709,2.709,0,0,0,16.188,8.3Zm-7.5-1.8A2.709,2.709,0,0,1,11.5,3.8a2.709,2.709,0,0,1,2.813,2.7V8.3H8.687Zm3.844,7.65-.094.09V15.5a.869.869,0,0,1-.937.9.869.869,0,0,1-.937-.9V14.24a1.273,1.273,0,0,1-.094-1.89,1.4,1.4,0,0,1,1.969-.09A1.269,1.269,0,0,1,12.531,14.15Z" transform="translate(-4 -2)" fill="#365394"/>
</svg>
