<svg id="settings" xmlns="http://www.w3.org/2000/svg" width="20.64" height="20.64" viewBox="0 0 20.64 20.64">
  <path id="Path_23386" data-name="Path 23386" d="M12.031,8.486a3.225,3.225,0,1,0,3.225,3.225A3.226,3.226,0,0,0,12.031,8.486Zm6.962,3.225a6.273,6.273,0,0,1-.065.9l1.961,1.539a.464.464,0,0,1,.107.593L19.139,17.95a.468.468,0,0,1-.568.2l-2.309-.929a6.974,6.974,0,0,1-1.565.916l-.344,2.451a.486.486,0,0,1-.464.4H10.174a.486.486,0,0,1-.464-.383l-.344-2.451A6.726,6.726,0,0,1,7.8,17.232l-2.309.929a.468.468,0,0,1-.568-.2L3.066,14.755a.464.464,0,0,1,.107-.593l1.961-1.535a6.559,6.559,0,0,1-.064-.916,6.272,6.272,0,0,1,.064-.9L3.173,9.273a.464.464,0,0,1-.107-.593L4.923,5.471a.468.468,0,0,1,.568-.2L7.8,6.2a6.974,6.974,0,0,1,1.565-.916l.344-2.451a.486.486,0,0,1,.464-.4h3.715a.486.486,0,0,1,.464.383L14.7,5.274a6.726,6.726,0,0,1,1.565.916l2.309-.929a.468.468,0,0,1,.568.2L21,8.666a.464.464,0,0,1-.107.593L18.928,10.8A6.453,6.453,0,0,1,18.993,11.711Z" transform="translate(-1.711 -1.391)" fill="#d83564"/>
  <path id="Path_23387" data-name="Path 23387" d="M0,0H20.64V20.64H0Z" fill="none"/>
</svg>
