<svg id="Group_21774" data-name="Group 21774" xmlns="http://www.w3.org/2000/svg" width="38.735" height="38.2" viewBox="0 0 38.735 38.2">
  <ellipse id="Ellipse_634" data-name="Ellipse 634" cx="19.368" cy="19.1" rx="19.368" ry="19.1" fill="#365495"/>
  <path id="Path_19448" data-name="Path 19448" d="M34.8,18.455c-1.054-2.125-2.186-4.164-3.239-6.047a1.271,1.271,0,0,0-1.1-.648h-.009a1.2,1.2,0,0,0-1.114.752c-.492,1.183-1.028,2.4-1.6,3.689-.587-1.235-1.183-2.453-1.788-3.68a1.248,1.248,0,0,0-1.227-.691,1.234,1.234,0,0,0-1.08.916c-.76,2.859-1.6,5.719-2.427,8.535q-1.361-2.54-2.7-5.1a1.23,1.23,0,0,0-2.229.052q-1.179,2.475-2.35,4.95c-.708-1.676-1.356-3.248-1.961-4.76a1.222,1.222,0,0,0-1.08-.795,1.237,1.237,0,0,0-1.149.613c-1.4,2.3-2.885,4.734-4.3,7.2a1.35,1.35,0,0,0,.3,1.676,1.274,1.274,0,0,0,1.028.285,1.215,1.215,0,0,0,.855-.6c.881-1.546,1.831-3.17,2.954-5.036.665,1.589,1.382,3.274,2.177,5.088a1.275,1.275,0,0,0,1.088.777,1.235,1.235,0,0,0,1.2-.743c.829-1.831,1.676-3.637,2.427-5.218.622,1.175,1.253,2.341,1.875,3.516l.993,1.857a1.238,1.238,0,0,0,1.088.674h.009a.465.465,0,0,1,.069-.009h.069l.026.009a1.253,1.253,0,0,0,1.158-.907l.112-.371c.769-2.566,1.555-5.2,2.306-7.844.492,1.037.985,2.065,1.46,3.11a1.189,1.189,0,0,0,1.166.717A1.259,1.259,0,0,0,28.9,19.69c.631-1.365,1.209-2.635,1.745-3.844C31.35,17.168,32,18.4,32.594,19.6a1.25,1.25,0,0,0,2.229-1.132Z" transform="translate(-0.718 -1.601)" fill="#fff"/>
  <ellipse id="Ellipse_635" data-name="Ellipse 635" cx="1.382" cy="1.356" rx="1.382" ry="1.356" transform="translate(19.67 25.328)" fill="#d83764"/>
</svg>
