<svg id="users" xmlns="http://www.w3.org/2000/svg" width="18" height="18" viewBox="0 0 18 18">
  <path id="Path_23403" data-name="Path 23403" d="M5.963,16.912c-.45,0-1.012-.225-1.012-.675s.563-.337,1.012-1.125c0,0,2.025-5.513-2.025-5.513s-2.025,5.513-2.025,5.513c.45.788,1.013.675,1.013,1.125s-.562.675-1.013.675c-.675.112-1.238,0-1.913.675V24H5.625a42.246,42.246,0,0,1,1.237-6.863l.113-.112A2.5,2.5,0,0,0,5.963,16.912Z" transform="translate(0 -6)" fill="#365394"/>
  <path id="Path_23404" data-name="Path 23404" d="M29.25,12.375a2.8,2.8,0,0,0-2.25-.9c-.562-.113-1.238-.225-1.238-.787s.675-.338,1.238-1.35c0,0,2.363-6.638-2.475-6.638-4.95.112-2.588,6.75-2.588,6.75.563.9,1.237.787,1.237,1.238,0,.563-.675.675-1.237.787a2.755,2.755,0,0,0-2.812,1.688A53.1,53.1,0,0,0,18,19.688H29.25Z" transform="translate(-11.25 -1.687)" fill="#365394"/>
  <path id="Path_23405" data-name="Path 23405" d="M0,0H18V18H0Z" fill="none"/>
</svg>
