<svg xmlns="http://www.w3.org/2000/svg" xmlns:xlink="http://www.w3.org/1999/xlink" width="56" height="56" viewBox="0 0 56 56">
  <defs>
    <filter id="Ellipse_788" x="0" y="0" width="56" height="56" filterUnits="userSpaceOnUse">
      <feOffset dy="3" input="SourceAlpha"/>
      <feGaussianBlur stdDeviation="3" result="blur"/>
      <feFlood flood-opacity="0.161"/>
      <feComposite operator="in" in2="blur"/>
      <feComposite in="SourceGraphic"/>
    </filter>
  </defs>
  <g id="Group_21700" data-name="Group 21700" transform="translate(-1154 -964)">
    <g transform="matrix(1, 0, 0, 1, 1154, 964)" filter="url(#Ellipse_788)">
      <circle id="Ellipse_788-2" data-name="Ellipse 788" cx="19" cy="19" r="19" transform="translate(9 6)" fill="#fff"/>
    </g>
    <g id="youtube" transform="translate(1170 977)">
      <path id="Path_23414" data-name="Path 23414" d="M23.529,13.853a8.339,8.339,0,0,0-.891-4.043,2.845,2.845,0,0,0-1.684-.979,77.564,77.564,0,0,0-8.194-.3A75.771,75.771,0,0,0,4.6,8.821a2.793,2.793,0,0,0-1.429.724c-.881.813-.979,2.2-1.077,3.377a47.3,47.3,0,0,0,0,6.344,9.464,9.464,0,0,0,.294,1.958,3.086,3.086,0,0,0,.7,1.331,2.777,2.777,0,0,0,1.459.764,44.6,44.6,0,0,0,6.363.323c3.426.049,6.432,0,9.986-.274a2.841,2.841,0,0,0,1.5-.764,2.441,2.441,0,0,0,.6-.979A10.236,10.236,0,0,0,23.49,18.3C23.529,17.749,23.529,14.44,23.529,13.853ZM10.547,18.885v-6.06l5.8,3.045C14.718,16.77,12.574,17.788,10.547,18.885Z" transform="translate(-1.012 -4.347)" fill="#f70000"/>
      <path id="Path_23415" data-name="Path 23415" d="M0,0H23.5V23.5H0Z" fill="none"/>
    </g>
  </g>
</svg>
